<svg xmlns="http://www.w3.org/2000/svg" xmlns:xlink="http://www.w3.org/1999/xlink" width="500" zoomAndPan="magnify" viewBox="0 0 375 374.999991" height="500" preserveAspectRatio="xMidYMid meet" version="1.0"><defs><clipPath id="0816ea7f67"><path d="M 85.09375 26.859375 L 289.84375 26.859375 L 289.84375 347.859375 L 85.09375 347.859375 Z M 85.09375 26.859375 " clip-rule="nonzero"/></clipPath></defs><g clip-path="url(#0816ea7f67)"><path fill="#ff6233" d="M 213.554688 128.164062 L 213.554688 246.445312 L 197.453125 255.734375 L 161.378906 276.582031 L 114.019531 303.898438 L 161.378906 331.214844 L 190.207031 347.859375 L 213.554688 334.421875 L 273.640625 299.695312 L 289.796875 290.40625 L 289.796875 221.0625 L 273.640625 211.773438 L 230.59375 186.890625 L 272.976562 162.449219 L 289.796875 152.773438 L 289.796875 84.203125 L 264.84375 69.828125 L 213.554688 40.242188 L 190.425781 26.859375 L 161.378906 43.617188 L 114.1875 70.820312 L 85.140625 87.578125 L 85.140625 261.488281 L 146.277344 226.207031 L 161.378906 217.46875 L 161.378906 98.027344 L 188.65625 113.789062 Z M 213.554688 128.164062 " fill-opacity="1" fill-rule="evenodd"/></g></svg>